inDegrees=yes
name=ik_S44_A06_T02
DataType=double
version=3
OpenSimVersion=4.3-2021-08-27-4bc7ad9
endheader
time	pelvis_tilt	pelvis_list	pelvis_rotation	pelvis_tx	pelvis_ty	pelvis_tz	hip_flexion_r	hip_adduction_r	hip_rotation_r	knee_angle_r	knee_angle_r_beta	ankle_angle_r	subtalar_angle_r	mtp_angle_r	hip_flexion_l	hip_adduction_l	hip_rotation_l	knee_angle_l	knee_angle_l_beta	ankle_angle_l	subtalar_angle_l	mtp_angle_l	lumbar_extension	lumbar_bending	lumbar_rotation	arm_flex_r	arm_add_r	arm_rot_r	elbow_flex_r	pro_sup_r	wrist_flex_r	wrist_dev_r	arm_flex_l	arm_add_l	arm_rot_l	elbow_flex_l	pro_sup_l	wrist_flex_l	wrist_dev_l
9.419999999999888	-8.543667857945918	-1.712913180050086	26.90408152744941	0	0.9399999999999999	0	42.2253292666168	-10.13363404002752	-10.11821268561239	56.25981891973534	0.9819190767251812	0	0	0	42.2253292666168	-10.13363404002752	-10.11821268561239	56.25981891973534	0.9819190767251812	0	0	0	-4.46366460892772	1.108727704233643	5.06817922904461	34.4465181204067	1.514956948503174	13.96872178426456	36.65790650536574	126.0167627636233	0	0	77.97877796890862	-3.177579393308935	2.517419464147971	18.49499521380528	98.20250202843395	0	0
9.439999999999888	-8.517574203411334	-1.678127614131697	26.83438698638981	0	0.9399999999999999	0	42.22593390464126	-10.13353285652211	-10.11815519756023	56.25963460599779	0.9819158598436042	0	0	0	42.22593390464126	-10.13353285652211	-10.11815519756023	56.25963460599779	0.9819158598436042	0	0	0	-4.423153983259813	1.121124082206911	5.145688181762901	34.41595993975501	1.52521679668153	14.05437339507399	36.60734365560575	125.9633264346269	0	0	78.0917735141398	-2.591772157739578	2.705526377578363	18.58241395318517	98.12187534507814	0	0
9.459999999999887	-8.517685204810071	-1.658446123172951	26.75398009325201	0	0.9399999999999999	0	42.22687311908961	-10.13337508141161	-10.11806566142688	56.25934951056816	0.9819108839896749	0	0	0	42.22687311908961	-10.13337508141161	-10.11806566142688	56.25934951056816	0.9819108839896749	0	0	0	-4.412512501987633	1.128887024339545	5.259626329795156	34.47804916824733	1.51268989919934	14.04619977705424	36.53558574323845	125.9382371557737	0	0	78.2139231930279	-1.807480832728261	3.073496471128118	19.12629637035501	98.08751513390574	0	0
9.479999999999887	-8.50615938476381	-1.619689532286596	26.62361054047852	0	0.9399999999999999	0	42.22796065559771	-10.13319242320768	-10.1179619823242	56.25901958272664	0.9819051256625463	0	0	0	42.22796065559771	-10.13319242320768	-10.1179619823242	56.25901958272664	0.9819051256625463	0	0	0	-4.38312497991753	1.148258611772514	5.379171364475846	34.41462694860466	1.478282002366153	14.07975586450591	36.55405647279122	125.929816997918	0	0	78.27324833040315	-0.909091872760432	3.44745030315108	20.10498123696719	98.45906748794984	0	0
9.499999999999886	-8.489727800572032	-1.573280498269939	26.53614931936175	0	0.9399999999999999	0	42.22871202605203	-10.13306644328708	-10.11789042360987	56.25879141031223	0.9819011433026525	0	0	0	42.22871202605203	-10.13306644328708	-10.11789042360987	56.25879141031223	0.9819011433026525	0	0	0	-4.346536614680077	1.17556236448561	5.461692328261691	34.41858969690448	1.477312358480726	14.03293027699549	36.48250545652427	125.9945408018491	0	0	78.376326985082	-0.20735927947192	3.804604804560444	20.17858982091744	98.44513148481168	0	0
9.519999999999886	-8.497486614729917	-1.524894487558115	26.39997577988515	0	0.9399999999999999	0	42.22961848079247	-10.13291445240517	-10.11780408070519	56.25851633291433	0.9818963422963612	0	0	0	42.22961848079247	-10.13291445240517	-10.11780408070519	56.25851633291433	0.9818963422963612	0	0	0	-4.330943638630703	1.215059852707965	5.55193729009232	34.44553395153551	1.50179603934392	14.01224203591821	36.40537574789741	126.1081718615192	0	0	78.51109458180049	0.6263100746677294	4.321126638780221	20.58528521704416	98.38621705404618	0	0
9.539999999999885	-8.500416685925197	-1.440264871351892	26.29580192342862	0	0.9399999999999999	0	42.23044378115124	-10.1327768074903	-10.11772573390133	56.25826479900856	0.9818919522015253	0	0	0	42.23044378115124	-10.1327768074903	-10.11772573390133	56.25826479900856	0.9818919522015253	0	0	0	-4.29680576165488	1.29224659706573	5.556773901781941	34.53760073080572	1.590639312559332	14.15978294055806	36.16512345582422	126.2457285978279	0	0	78.35533829352293	0.7769486835893111	4.236829350205397	21.38654407320387	98.59840019512389	0	0
9.559999999999885	-8.517268876383065	-1.412218929941854	26.11518554031523	0	0.9399999999999999	0	42.23126068653561	-10.13264014157471	-10.11764801865023	56.25801665858103	0.9818876213340575	0	0	0	42.23126068653561	-10.13264014157471	-10.11764801865023	56.25801665858103	0.9818876213340575	0	0	0	-4.29875013547048	1.318579758169896	5.634005903257501	34.60335667435734	1.666933271363557	14.26519727429091	36.06770328530862	126.250358020446	0	0	78.51262115400334	1.66301595397719	4.813598477346909	21.66706701888182	98.43693874185155	0	0
9.579999999999885	-8.53845875212521	-1.370701717961599	25.91324695322617	0	0.9399999999999999	0	42.23885349764254	-10.13170546439383	-10.11705414480093	56.25508517685519	0.9818364573259796	0	0	0	42.23885349764254	-10.13170546439383	-10.11705414480093	56.25508517685519	0.9818364573259796	0	0	0	-4.31037130001045	1.367481814429827	5.619105812363189	34.69039107881695	1.780006583902568	14.42662749513991	35.94033800581416	126.3576962758089	0	0	79.22271090211513	3.446323861329917	5.786703603416834	20.78522609062766	97.93255733412718	0	0
9.599999999999884	-8.562902459743009	-1.348413821656938	25.61660743602373	0	0.9399999999999999	0	42.2395874882853	-10.13158329067706	-10.11698450482146	56.25486210026446	0.9818325639049873	0	0	0	42.2395874882853	-10.13158329067706	-10.11698450482146	56.25486210026446	0.9818325639049873	0	0	0	-4.322434124792062	1.393817808854766	5.672295294037173	34.76416087680328	1.958059555953938	14.53960418858208	35.83561779437252	126.4542158569778	0	0	79.52273112283126	4.657089936024111	6.157090417140712	21.356273162216	98.26792693978958	0	0
9.619999999999884	-8.572052111020806	-1.329101655849325	25.27979796402995	0	0.9399999999999999	0	42.24085791137416	-10.13137153675781	-10.11686384064257	56.2544767887096	0.981825838949709	0	0	0	42.24085791137416	-10.13137153675781	-10.11686384064257	56.2544767887096	0.981825838949709	0	0	0	-4.324606783780371	1.41923098266551	5.62326680353337	34.85987349198115	2.244197501413422	14.82399369941917	35.61162635381518	126.5714563336064	0	0	79.94173068683305	5.434668922421166	6.190172483964331	20.86516347895954	98.52681435871706	0	0
9.639999999999883	-8.573940126646407	-1.330737336579001	25.0135541658762	0	0.9399999999999999	0	42.2418552761662	-10.13120572976148	-10.1167692598487	56.25417378188841	0.9818205504830232	0	0	0	42.2418552761662	-10.13120572976148	-10.1167692598487	56.25417378188841	0.9818205504830232	0	0	0	-4.32668316227982	1.413278118346889	5.685672305444749	35.09536159533329	2.496427818216604	15.0498229223274	35.23276368682621	126.5549166476916	0	0	80.43312336883592	6.581096595592498	6.386772763203869	20.48844375631937	98.88355334964889	0	0
9.659999999999883	-8.558548631514183	-1.33612898549117	24.58157910048267	0	0.9399999999999999	0	42.24304802164778	-10.13100734755758	-10.11665609610687	56.25381188617157	0.9818142342112155	0	0	0	42.24304802164778	-10.13100734755758	-10.11665609610687	56.25381188617157	0.9818142342112155	0	0	0	-4.317771227678968	1.4087386480864	5.604365714801155	35.05956897238817	2.765283504583461	15.47183709110012	35.04677223731699	126.6129496401487	0	0	80.91803487365661	7.468585037890939	6.506641682120144	19.93679310911739	99.24742099300714	0	0
9.679999999999882	-8.542675096955906	-1.343507340773969	24.13389571437359	0	0.9399999999999999	0	42.2440499582579	-10.13084111343846	-10.1165611761769	56.25350740747485	0.9818089200554555	0	0	0	42.2440499582579	-10.13084111343846	-10.1165611761769	56.25350740747485	0.9818089200554555	0	0	0	-4.308593986897995	1.400039349365019	5.546886889747332	35.27124112331629	3.243962013304822	16.00529063736406	34.52832647606953	126.6714972678042	0	0	81.3671997432286	8.479202823046259	6.470196156899503	19.47074462686008	99.55127251979134	0	0
9.699999999999882	-8.544899701058901	-1.337973600981753	23.69603095779415	0	0.9399999999999999	0	42.245114580757	-10.13066460904525	-10.11646035153593	56.25318389436523	0.9818032736865193	0	0	0	42.245114580757	-10.13066460904525	-10.11646035153593	56.25318389436523	0.9818032736865193	0	0	0	-4.311035150487414	1.412504030785222	5.467311404356852	35.4844060525917	3.714753561610392	16.48238185508637	34.03469749441972	126.8248209934636	0	0	81.92876456822161	9.290511663389985	6.178995392866071	18.58953664459991	99.84821025367707	0	0
9.719999999999882	-8.531629931175283	-1.32362592976233	22.93304227894398	0	0.9399999999999999	0	42.24580799241678	-10.13055042468809	-10.11639496750754	56.25297196367956	0.9817995747982683	0	0	0	42.24580799241678	-10.13055042468809	-10.11639496750754	56.25297196367956	0.9817995747982683	0	0	0	-4.301561188403888	1.451453455094087	5.102583450807251	35.59679960777412	4.474100766884119	17.34791083811194	33.74614293454864	126.9966207649997	0	0	81.84342148839184	8.423296708147717	5.983233002441096	18.66802372828773	99.71570645608925	0	0
9.739999999999881	-8.536807369671873	-1.330477041828349	22.60841922511695	0	0.9399999999999999	0	42.24702392670824	-10.1303489212866	-10.11627981336192	56.25260283498461	0.9817931322871778	0	0	0	42.24702392670824	-10.1303489212866	-10.11627981336192	56.25260283498461	0.9817931322871778	0	0	0	-4.309653626405371	1.446160099343797	5.127855511327887	36.11371523068483	4.990424105990112	17.22739420483448	32.91059888188687	127.4692654438996	0	0	82.32721125856496	9.539096229260915	6.069813237139969	17.93068455201777	99.75251369371354	0	0
9.759999999999881	-8.555309006508203	-1.335610934720846	22.26123916692713	0	0.9399999999999999	0	42.25131136069055	-10.12977032711325	-10.11592508807651	56.25103652810842	0.9817657950750918	0	0	0	42.25131136069055	-10.12977032711325	-10.11592508807651	56.25103652810842	0.9817657950750918	0	0	0	-4.33957610930472	1.470067763924934	4.876559177597791	36.37719196397529	5.462362616604619	17.67017227106964	32.26934417104617	127.8732648044473	0	0	83.19287467732799	11.4325081047404	6.379199833761846	16.39326981154422	99.79437360120529	0	0
9.77999999999988	-8.590203851065526	-1.320511265970745	21.76654152615831	0	0.9399999999999999	0	42.25258146230311	-10.12956068456432	-10.11580504867213	56.25065078480309	0.9817590625843463	0	0	0	42.25258146230311	-10.12956068456432	-10.11580504867213	56.25065078480309	0.9817590625843463	0	0	0	-4.369534026576459	1.504426512034054	4.791465740024891	36.57748586656398	5.877913658414782	18.20219226685001	31.86425579814575	127.9769967082969	0	0	83.61911496990787	12.41504534216365	6.678520539708871	15.5618228685408	100.3621209503841	0	0
9.79999999999988	-8.610410407153772	-1.311810416900274	21.30410146814027	0	0.9399999999999999	0	42.2537115145328	-10.12937444238822	-10.1156983344627	56.25030737586066	0.9817530689676199	0	0	0	42.2537115145328	-10.12937444238822	-10.1156983344627	56.25030737586066	0.9817530689676199	0	0	0	-4.388367198632641	1.528633674330189	4.688113950153582	36.76641945452723	6.264004046058067	18.74426934690261	31.55735371692745	127.9617493296081	0	0	84.01446006883434	13.14932553737245	7.089049962139107	14.75331770996331	100.2601621779173	0	0
